<svg width="193" height="33" viewBox="0 0 193 33" fill="none" xmlns="http://www.w3.org/2000/svg">
<path d="M-2.563e-05 -5.05447e-05H4.60797V17.892L18.144 -5.05447e-05H22.5V25.2H17.892V7.34395L4.35597 25.2H-2.563e-05V-5.05447e-05ZM29.0615 5.97595H33.5615V13.788H43.2455V5.97595H47.7455V25.2H43.2455V17.604H33.5615V25.2H29.0615V5.97595ZM69.0044 9.79195H62.2724V25.2H57.7724V9.79195H51.0044V5.97595H69.0044V9.79195ZM89.4248 15.696C89.4248 16.008 89.4008 16.452 89.3528 17.028H74.2688C74.5328 18.444 75.2168 19.572 76.3208 20.412C77.4488 21.228 78.8408 21.636 80.4968 21.636C82.6088 21.636 84.3488 20.94 85.7168 19.548L88.1288 22.32C87.2648 23.352 86.1728 24.132 84.8528 24.66C83.5328 25.188 82.0448 25.452 80.3888 25.452C78.2768 25.452 76.4168 25.032 74.8088 24.192C73.2008 23.352 71.9528 22.188 71.0648 20.7C70.2008 19.188 69.7688 17.484 69.7688 15.588C69.7688 13.716 70.1888 12.036 71.0288 10.548C71.8928 9.03595 73.0808 7.85995 74.5928 7.01995C76.1048 6.17995 77.8088 5.75995 79.7048 5.75995C81.5768 5.75995 83.2448 6.17995 84.7088 7.01995C86.1968 7.83595 87.3488 8.99995 88.1648 10.512C89.0048 12 89.4248 13.728 89.4248 15.696ZM79.7048 9.35995C78.2648 9.35995 77.0408 9.79195 76.0328 10.656C75.0488 11.496 74.4488 12.624 74.2328 14.04H85.1408C84.9488 12.648 84.3608 11.52 83.3768 10.656C82.3928 9.79195 81.1688 9.35995 79.7048 9.35995ZM105.003 5.75995C106.875 5.75995 108.543 6.16795 110.007 6.98395C111.495 7.79995 112.659 8.95195 113.499 10.44C114.339 11.928 114.759 13.644 114.759 15.588C114.759 17.532 114.339 19.26 113.499 20.772C112.659 22.26 111.495 23.412 110.007 24.228C108.543 25.044 106.875 25.452 105.003 25.452C102.411 25.452 100.359 24.588 98.8467 22.86V32.184H94.3467V5.97595H98.6307V8.49595C99.3747 7.58395 100.287 6.89995 101.367 6.44395C102.471 5.98795 103.683 5.75995 105.003 5.75995ZM104.499 21.6C106.155 21.6 107.511 21.048 108.567 19.944C109.647 18.84 110.187 17.388 110.187 15.588C110.187 13.788 109.647 12.336 108.567 11.232C107.511 10.128 106.155 9.57595 104.499 9.57595C103.419 9.57595 102.447 9.82795 101.583 10.332C100.719 10.812 100.035 11.508 99.5307 12.42C99.0267 13.332 98.7747 14.388 98.7747 15.588C98.7747 16.788 99.0267 17.844 99.5307 18.756C100.035 19.668 100.719 20.376 101.583 20.88C102.447 21.36 103.419 21.6 104.499 21.6ZM128.885 12.312C131.333 12.312 133.205 12.864 134.501 13.968C135.821 15.072 136.481 16.632 136.481 18.648C136.481 20.76 135.761 22.392 134.321 23.544C132.881 24.696 130.853 25.26 128.237 25.236L119.237 25.2V5.97595H123.737V12.276L128.885 12.312ZM127.841 21.924C129.161 21.948 130.169 21.672 130.865 21.096C131.561 20.52 131.909 19.68 131.909 18.576C131.909 17.496 131.573 16.704 130.901 16.2C130.229 15.696 129.209 15.432 127.841 15.408L123.737 15.372V21.888L127.841 21.924ZM158.437 15.696C158.437 16.008 158.413 16.452 158.365 17.028H143.281C143.545 18.444 144.229 19.572 145.333 20.412C146.461 21.228 147.853 21.636 149.509 21.636C151.621 21.636 153.361 20.94 154.729 19.548L157.141 22.32C156.277 23.352 155.185 24.132 153.865 24.66C152.545 25.188 151.057 25.452 149.401 25.452C147.289 25.452 145.429 25.032 143.821 24.192C142.213 23.352 140.965 22.188 140.077 20.7C139.213 19.188 138.781 17.484 138.781 15.588C138.781 13.716 139.201 12.036 140.041 10.548C140.905 9.03595 142.093 7.85995 143.605 7.01995C145.117 6.17995 146.821 5.75995 148.717 5.75995C150.589 5.75995 152.257 6.17995 153.721 7.01995C155.209 7.83595 156.361 8.99995 157.177 10.512C158.017 12 158.437 13.728 158.437 15.696ZM148.717 9.35995C147.277 9.35995 146.053 9.79195 145.045 10.656C144.061 11.496 143.461 12.624 143.245 14.04H154.153C153.961 12.648 153.373 11.52 152.389 10.656C151.405 9.79195 150.181 9.35995 148.717 9.35995ZM174.014 5.75995C175.886 5.75995 177.554 6.16795 179.018 6.98395C180.506 7.79995 181.67 8.95195 182.51 10.44C183.35 11.928 183.77 13.644 183.77 15.588C183.77 17.532 183.35 19.26 182.51 20.772C181.67 22.26 180.506 23.412 179.018 24.228C177.554 25.044 175.886 25.452 174.014 25.452C171.422 25.452 169.37 24.588 167.858 22.86V32.184H163.358V5.97595H167.642V8.49595C168.386 7.58395 169.298 6.89995 170.378 6.44395C171.482 5.98795 172.694 5.75995 174.014 5.75995ZM173.51 21.6C175.166 21.6 176.522 21.048 177.578 19.944C178.658 18.84 179.198 17.388 179.198 15.588C179.198 13.788 178.658 12.336 177.578 11.232C176.522 10.128 175.166 9.57595 173.51 9.57595C172.43 9.57595 171.458 9.82795 170.594 10.332C169.73 10.812 169.046 11.508 168.542 12.42C168.038 13.332 167.786 14.388 167.786 15.588C167.786 16.788 168.038 17.844 168.542 18.756C169.046 19.668 169.73 20.376 170.594 20.88C171.458 21.36 172.43 21.6 173.51 21.6ZM189.265 25.452C188.449 25.452 187.753 25.176 187.177 24.624C186.601 24.048 186.313 23.328 186.313 22.464C186.313 21.576 186.589 20.856 187.141 20.304C187.717 19.752 188.425 19.476 189.265 19.476C190.105 19.476 190.801 19.752 191.353 20.304C191.929 20.856 192.217 21.576 192.217 22.464C192.217 23.328 191.929 24.048 191.353 24.624C190.777 25.176 190.081 25.452 189.265 25.452Z" fill="black"/>
</svg>
